# xmcd
# Copyright (C) 1995-1998 Ti Kan
#
# Track frame offsets:
#       150
#       14724
#       32635
#       48638
#
# Disc length: 859 seconds
#
# Revision: 0
# Processed by: cddbd v1.5.2PL0 Copyright (c) Steve Scherf et al.
# Submitted via: CD-Transfer v1.0
#
DISCID=30035904
DTITLE=Singel Neuheiten - 
DYEAR=12
DGENRE=
TTITLE0=G.g Anderson/Barbara (12)
TTITLE1=Ute Freudenberg and Christian Lais/Reise Durch Die Zeit (12)
TTITLE2=Olaf Berger/Wenn Dein Blick Einen Nacht Verrät (12)
TTITLE3=Die Cappuccinos/Eine Nacht Allein Mit Dir (12)
EXTD=
EXTT0=
EXTT1=
EXTT2=
EXTT3=
PLAYORDER=
